####
#
# OBJ File Generated by Style3D V3.1.9999
#
####
mtllib square_1.mtl
g default
v -0.318995 0.998220 0.150000
v -0.318995 1.011499 0.150000
v -0.305716 1.011499 0.150000
v -0.305716 0.998220 0.150000
# 4 vertices
vn 0.000002 0.000001 1.000000
vn 0.000001 0.000000 1.000000
vn 0.000000 -0.000001 1.000000
vn 0.000001 0.000000 1.000000
# 4 vertex normals
vt 0.000000 0.000000 0.000000
vt 0.000000 0.611479 0.000000
vt 0.475509 0.611479 0.000000
vt 0.475509 0.000000 0.000000
# 4 texture coords
s 1
g 版片5
usemtl Material1
f 2/2/2 1/1/1 4/4/4
f 4/4/4 3/3/3 2/2/2
# 2 faces
# End of File
