####
#
# OBJ File Generated by Style3D V3.1.9999
#
####
mtllib square_16.mtl
g default
v -0.318995 0.943720 0.150000
v -0.318995 0.960665 0.150000
v -0.318995 0.977609 0.150000
v -0.318995 0.994554 0.150000
v -0.318995 1.011499 0.150000
v -0.302050 1.011499 0.150000
v -0.285106 1.011499 0.150000
v -0.268161 1.011498 0.150000
v -0.251217 1.011498 0.150000
v -0.251216 0.994554 0.150000
v -0.251216 0.977609 0.150000
v -0.251216 0.960664 0.150000
v -0.251216 0.943719 0.149999
v -0.268161 0.943719 0.150000
v -0.285105 0.943720 0.150000
v -0.302050 0.943720 0.150000
v -0.293578 0.969137 0.150000
v -0.307698 0.969137 0.150000
v -0.300638 0.957370 0.150000
v -0.300638 0.987494 0.150000
v -0.276633 0.960664 0.150000
v -0.274939 0.986081 0.150000
v -0.293578 0.999953 0.150000
v -0.288202 0.955858 0.150000
v -0.263925 0.956428 0.150000
v -0.280705 0.973701 0.150000
v -0.261565 0.986081 0.150000
v -0.276633 1.000146 0.150000
v -0.265701 0.971490 0.150000
# 29 vertices
vn 0.000004 -0.000004 1.000000
vn 0.000004 -0.000004 1.000000
vn 0.000002 -0.000001 1.000000
vn 0.000001 -0.000001 1.000000
vn 0.000000 0.000001 1.000000
vn 0.000001 0.000000 1.000000
vn 0.000001 -0.000001 1.000000
vn 0.000003 -0.000001 1.000000
vn 0.000004 -0.000001 1.000000
vn 0.000003 -0.000003 1.000000
vn 0.000004 -0.000009 1.000000
vn 0.000006 -0.000009 1.000000
vn 0.000007 -0.000008 1.000000
vn 0.000008 -0.000006 1.000000
vn 0.000008 -0.000005 1.000000
vn 0.000004 -0.000003 1.000000
vn 0.000005 -0.000004 1.000000
vn 0.000004 -0.000003 1.000000
vn 0.000004 -0.000004 1.000000
vn 0.000003 -0.000003 1.000000
vn 0.000006 -0.000006 1.000000
vn 0.000003 -0.000005 1.000000
vn 0.000001 -0.000002 1.000000
vn 0.000006 -0.000004 1.000000
vn 0.000007 -0.000008 1.000000
vn 0.000004 -0.000006 1.000000
vn 0.000003 -0.000006 1.000000
vn 0.000002 -0.000003 1.000000
vn 0.000004 -0.000008 1.000000
# 29 vertex normals
vt 0.000000 0.000000 0.000000
vt 0.000000 0.780273 0.000000
vt 0.000000 1.560549 0.000000
vt 0.000000 2.340822 0.000000
vt 0.000000 3.121095 0.000000
vt 0.606768 3.121095 0.000000
vt 1.213535 3.121095 0.000000
vt 1.820303 3.121095 0.000000
vt 2.427070 3.121095 0.000000
vt 2.427070 2.340822 0.000000
vt 2.427070 1.560549 0.000000
vt 2.427070 0.780273 0.000000
vt 2.427070 0.000000 0.000000
vt 1.820303 0.000000 0.000000
vt 1.213535 0.000000 0.000000
vt 0.606768 0.000000 0.000000
vt 0.910154 1.170411 0.000000
vt 0.404513 1.170411 0.000000
vt 0.657333 0.628553 0.000000
vt 0.657333 2.015707 0.000000
vt 1.516919 0.780270 0.000000
vt 1.577595 1.950684 0.000000
vt 0.910152 2.589437 0.000000
vt 1.102650 0.558963 0.000000
vt 1.971995 0.585203 0.000000
vt 1.371105 1.380580 0.000000
vt 2.056509 1.950684 0.000000
vt 1.516919 2.598312 0.000000
vt 1.908392 1.278778 0.000000
# 29 texture coords
s 1
g 版片5
usemtl Material1
f 15/15/15 14/14/14 21/21/21
f 1/1/1 16/16/16 19/19/19
f 16/16/16 24/24/24 19/19/19
f 15/15/15 21/21/21 24/24/24
f 17/17/17 24/24/24 21/21/21
f 2/2/2 19/19/19 18/18/18
f 2/2/2 1/1/1 19/19/19
f 20/20/20 4/4/4 3/3/3
f 24/24/24 16/16/16 15/15/15
f 6/6/6 5/5/5 4/4/4
f 18/18/18 20/20/20 3/3/3
f 18/18/18 17/17/17 20/20/20
f 2/2/2 18/18/18 3/3/3
f 11/11/11 10/10/10 27/27/27
f 13/13/13 12/12/12 25/25/25
f 4/4/4 23/23/23 6/6/6
f 27/27/27 22/22/22 29/29/29
f 10/10/10 28/28/28 27/27/27
f 17/17/17 26/26/26 20/20/20
f 7/7/7 6/6/6 23/23/23
f 26/26/26 17/17/17 21/21/21
f 23/23/23 22/22/22 28/28/28
f 10/10/10 9/9/9 8/8/8
f 14/14/14 25/25/25 21/21/21
f 28/28/28 8/8/8 7/7/7
f 4/4/4 20/20/20 23/23/23
f 27/27/27 29/29/29 11/11/11
f 19/19/19 24/24/24 17/17/17
f 22/22/22 23/23/23 20/20/20
f 17/17/17 18/18/18 19/19/19
f 13/13/13 25/25/25 14/14/14
f 29/29/29 12/12/12 11/11/11
f 21/21/21 25/25/25 29/29/29
f 20/20/20 26/26/26 22/22/22
f 28/28/28 10/10/10 8/8/8
f 29/29/29 22/22/22 26/26/26
f 23/23/23 28/28/28 7/7/7
f 27/27/27 28/28/28 22/22/22
f 21/21/21 29/29/29 26/26/26
f 29/29/29 25/25/25 12/12/12
# 40 faces
# End of File
